<?xml version="1.0" encoding="utf-8"?>
<!-- Generator: Adobe Illustrator 24.0.3, SVG Export Plug-In . SVG Version: 6.00 Build 0)  -->
<svg version="1.1" id="Capa_1" xmlns="http://www.w3.org/2000/svg" xmlns:xlink="http://www.w3.org/1999/xlink" x="0px" y="0px"
	 width="317.9px" height="48.9px" viewBox="0 0 317.9 48.9" style="enable-background:new 0 0 317.9 48.9;" xml:space="preserve">
<style type="text/css">
	.st0{fill-rule:evenodd;clip-rule:evenodd;fill:#E30613;}
	.st1{fill-rule:evenodd;clip-rule:evenodd;fill:#FFFFFF;}
	.st2{fill:#1D1D1B;}
	.st3{fill:#E20613;}
	.st4{fill:#1D1D1B;stroke:#1D1D1B;stroke-width:1.7919;stroke-linecap:round;stroke-linejoin:round;stroke-miterlimit:10;}
</style>
<g>
	<g>
		<rect x="244.1" y="40.1" class="st0" width="72.7" height="8.9"/>
		<g>
			<polygon class="st1" points="290.1,41.1 288.6,48 292,48 292.5,44.2 294,48 296,48 297.6,44.2 298.1,48 301.5,48 299.8,41.1 
				296.4,41.1 295,44.7 293.7,41.1 			"/>
			<polygon class="st1" points="300.7,41.1 308,41.1 308,43.4 306.1,43.4 306.1,48 302.6,48 302.6,43.4 300.7,43.4 			"/>
			<path class="st1" d="M307.9,47.4c0.8,0.3,2,0.5,2,0.5c0.7,0.1,0.9,0.1,2,0.1c1.1,0,2.2-0.5,2.2-0.5c1.1-0.5,1.4-1.2,1.4-1.2
				c0.5-0.9-0.1-1.7-0.1-1.7c-0.4-0.6-1.5-0.9-1.5-0.9c-0.3-0.2-1.9-0.3-1.9-0.3c-0.5,0-0.4-0.3-0.4-0.3c0-0.3,1-0.3,1.1-0.3
				c0.5,0,1.6,0.5,1.6,0.5l1-1.8c-0.9-0.5-2.5-0.6-2.5-0.6c-1.4-0.1-2.7,0.4-2.7,0.4c-2,0.6-1.9,2.1-1.9,2.1c0,0.4,0.2,1,0.8,1.3
				c0.8,0.5,2,0.6,2,0.6c0.6,0,0.9,0.1,0.9,0.1c0.4,0.1,0.1,0.5,0.1,0.5c-0.2,0.1-0.7,0.2-0.7,0.2c-1.2,0.1-2.4-0.7-2.4-0.7
				L307.9,47.4z"/>
		</g>
	</g>
	<g>
		<path class="st2" d="M99.4,48.5c-0.3,0.2-1,0.3-1.8,0.3c-2,0-3.4-1.2-3.4-3.5c0-2.2,1.5-3.7,3.6-3.7c0.9,0,1.4,0.2,1.7,0.3
			l-0.2,0.7c-0.3-0.2-0.8-0.3-1.4-0.3c-1.6,0-2.7,1-2.7,2.9c0,1.7,1,2.8,2.7,2.8c0.6,0,1.1-0.1,1.5-0.3L99.4,48.5z"/>
		<path class="st2" d="M107.7,45.4H105V48h3v0.8h-3.9v-7h3.8v0.8H105v2.2h2.7V45.4z"/>
		<path class="st2" d="M112.9,48.7v-7h1l2.2,3.5c0.5,0.8,0.9,1.6,1.2,2.3l0,0c-0.1-0.9-0.1-1.8-0.1-2.9v-2.9h0.8v7h-0.9l-2.2-3.5
			c-0.5-0.8-1-1.6-1.3-2.3l0,0c0.1,0.9,0.1,1.7,0.1,2.9v3H112.9z"/>
		<path class="st2" d="M124.6,42.5h-2.1v-0.8h5.2v0.8h-2.1v6.2h-0.9V42.5z"/>
		<path class="st2" d="M132.1,41.8c0.5-0.1,1.1-0.1,1.7-0.1c1,0,1.6,0.2,2,0.6c0.3,0.3,0.6,0.8,0.6,1.3c0,0.9-0.6,1.5-1.3,1.8v0
			c0.5,0.2,0.8,0.7,1,1.4c0.2,1,0.4,1.6,0.5,1.9h-0.9c-0.1-0.2-0.3-0.8-0.5-1.7c-0.2-1-0.6-1.3-1.4-1.4H133v3h-0.9V41.8z M133,45
			h0.9c1,0,1.6-0.5,1.6-1.3c0-0.9-0.7-1.3-1.6-1.3c-0.4,0-0.7,0-0.9,0.1V45z"/>
		<path class="st2" d="M147.3,45.2c0,2.4-1.5,3.7-3.2,3.7c-1.9,0-3.1-1.4-3.1-3.6c0-2.2,1.4-3.7,3.2-3.7
			C146,41.6,147.3,43.1,147.3,45.2z M141.8,45.3c0,1.5,0.8,2.8,2.2,2.8c1.4,0,2.2-1.3,2.2-2.9c0-1.4-0.7-2.8-2.2-2.8
			C142.6,42.3,141.8,43.7,141.8,45.3z"/>
		<path class="st2" d="M157.9,41.7h3.8v0.8h-2.9v2.3h2.6v0.7h-2.6v3.2h-0.9V41.7z"/>
		<path class="st2" d="M170.2,45.4h-2.7V48h3v0.8h-3.9v-7h3.8v0.8h-2.9v2.2h2.7V45.4z"/>
		<path class="st2" d="M175.3,41.8c0.5-0.1,1.1-0.1,1.7-0.1c1,0,1.6,0.2,2,0.6c0.3,0.3,0.5,0.8,0.5,1.3c0,0.9-0.6,1.5-1.3,1.8v0
			c0.5,0.2,0.8,0.7,1,1.4c0.2,1,0.4,1.6,0.5,1.9h-0.9c-0.1-0.2-0.3-0.8-0.5-1.7c-0.2-1-0.6-1.3-1.4-1.4h-0.8v3h-0.9V41.8z M176.2,45
			h0.9c1,0,1.6-0.5,1.6-1.3c0-0.9-0.6-1.3-1.6-1.3c-0.4,0-0.7,0-0.9,0.1V45z"/>
		<path class="st2" d="M184.5,41.8c0.5-0.1,1.1-0.1,1.7-0.1c1,0,1.6,0.2,2,0.6c0.3,0.3,0.6,0.8,0.6,1.3c0,0.9-0.6,1.5-1.3,1.8v0
			c0.5,0.2,0.9,0.7,1,1.4c0.2,1,0.4,1.6,0.5,1.9h-0.9c-0.1-0.2-0.3-0.8-0.5-1.7c-0.2-1-0.6-1.3-1.4-1.4h-0.9v3h-0.9V41.8z M185.4,45
			h0.9c1,0,1.6-0.5,1.6-1.3c0-0.9-0.7-1.3-1.6-1.3c-0.4,0-0.7,0-0.9,0.1V45z"/>
		<path class="st2" d="M197.3,45.4h-2.7V48h3v0.8h-3.9v-7h3.8v0.8h-2.9v2.2h2.7V45.4z"/>
		<path class="st2" d="M203.8,42.5h-2.1v-0.8h5.2v0.8h-2.1v6.2h-0.9V42.5z"/>
		<path class="st2" d="M214.8,45.4h-2.7V48h3v0.8h-3.9v-7h3.8v0.8h-2.9v2.2h2.7V45.4z"/>
		<path class="st2" d="M220,41.8c0.5-0.1,1.1-0.1,1.7-0.1c1,0,1.6,0.2,2,0.6c0.3,0.3,0.6,0.8,0.6,1.3c0,0.9-0.6,1.5-1.3,1.8v0
			c0.5,0.2,0.8,0.7,1,1.4c0.2,1,0.4,1.6,0.5,1.9h-0.9c-0.1-0.2-0.3-0.8-0.5-1.7c-0.2-1-0.6-1.3-1.4-1.4h-0.8v3H220V41.8z M220.9,45
			h0.9c1,0,1.6-0.5,1.6-1.3c0-0.9-0.7-1.3-1.6-1.3c-0.4,0-0.7,0-0.9,0.1V45z"/>
		<path class="st2" d="M235.1,45.2c0,2.4-1.5,3.7-3.2,3.7c-1.9,0-3.2-1.4-3.2-3.6c0-2.2,1.4-3.7,3.2-3.7
			C233.9,41.6,235.1,43.1,235.1,45.2z M229.7,45.3c0,1.5,0.8,2.8,2.2,2.8c1.4,0,2.2-1.3,2.2-2.9c0-1.4-0.7-2.8-2.2-2.8
			C230.5,42.3,229.7,43.7,229.7,45.3z"/>
	</g>
	<g>
		<polygon class="st2" points="136,34.5 127.3,34.5 124.8,15.3 116.7,34.5 113.3,34.5 105.6,15.3 102.7,34.5 94.1,34.5 99.7,1.1 
			108.4,1.1 115.1,18.9 122.3,1.1 131,1.1 		"/>
		<path class="st2" d="M173.3,34.5H164l-2.2-5.8h-12l-2.3,5.8h-9.2l12.9-33.5h9.5L173.3,34.5z M159.5,22.1l-3.6-10.7l-3.6,10.7
			H159.5z"/>
		<path class="st2" d="M206.5,17.8c0,3.5-1.1,6.7-3.1,9.7c-2.1,3-4.8,5-8.1,6.2c-1.7,0.6-3.5,0.9-5.3,0.9h-12.8V1.1H190
			c3.1,0,6,0.9,8.7,2.6c2.6,1.7,4.6,4,6.1,6.8C205.9,12.9,206.5,15.3,206.5,17.8 M197.5,17.8c0-2.3-0.6-4.3-1.9-6
			c-1.7-2.3-4.3-3.4-7.7-3.4h-2v18.9h2c3.4,0,6-1.1,7.7-3.4C196.8,22.1,197.5,20.1,197.5,17.8"/>
		<path class="st2" d="M239.8,34.5H229l-8.3-12.8v12.8H212V1.1h13.5c4,0,6.9,1.2,8.8,3.6c1.5,1.9,2.3,4.2,2.3,6.7
			c0,3-0.9,5.3-2.7,7.1c-1.1,1.1-2.7,1.9-4.7,2.4L239.8,34.5z M227.6,11.9c0-1.2-0.4-2.2-1.3-3c-0.8-0.8-2.1-1.2-4-1.2h-1.6V16h1.6
			c1.8,0,3.2-0.4,4-1.1C227.2,14.1,227.6,13.1,227.6,11.9"/>
		<rect x="243.5" y="1.1" class="st3" width="8.7" height="5.8"/>
		<rect x="243.5" y="8.9" class="st2" width="8.7" height="25.6"/>
		<path class="st2" d="M288.6,17.8c0,3.5-1.1,6.7-3.1,9.7c-2.1,3-4.8,5-8.1,6.2c-1.7,0.6-3.5,0.9-5.3,0.9h-12.8V1.1h12.8
			c3.1,0,6,0.9,8.7,2.6c2.6,1.7,4.6,4,6.1,6.8C288,12.9,288.6,15.3,288.6,17.8 M279.5,17.8c0-2.3-0.6-4.3-1.9-6
			c-1.7-2.3-4.3-3.4-7.7-3.4h-2v18.9h2c3.4,0,6-1.1,7.7-3.4C278.9,22.1,279.5,20.1,279.5,17.8"/>
		<polygon class="st3" points="45.8,22.7 59.3,0 91.5,48.8 63.2,48.8 		"/>
		<polygon class="st3" points="45.8,22.7 32.3,0 0,48.8 28.3,48.8 		"/>
	</g>
</g>
<g>
	<path class="st4" d="M289.4,30.6c0.6,0,1.1,0.2,1.5,0.6c0.4,0.4,0.6,0.9,0.6,1.5c0,0.6-0.2,1.1-0.6,1.5c-0.4,0.4-0.9,0.6-1.5,0.6
		c-0.6,0-1.1-0.2-1.5-0.6c-0.4-0.4-0.6-0.9-0.6-1.5c0-0.6,0.2-1.1,0.6-1.5C288.3,30.8,288.8,30.6,289.4,30.6z"/>
	<path class="st4" d="M310.1,22.5l-3.2,1.7c-0.6-0.6-1.2-1.1-1.8-1.3s-1.3-0.4-2-0.4c-1.4,0-2.6,0.4-3.4,1.3
		c-0.9,0.8-1.3,1.9-1.3,3.3c0,1.3,0.4,2.3,1.3,3.1c0.8,0.8,2,1.2,3.3,1.2c1.7,0,3-0.6,4-1.7l3,2c-1.6,2.1-3.9,3.2-6.9,3.2
		c-2.7,0-4.7-0.8-6.2-2.4c-1.5-1.6-2.3-3.4-2.3-5.5c0-1.5,0.4-2.8,1.1-4c0.7-1.2,1.8-2.2,3.1-2.9c1.3-0.7,2.8-1.1,4.4-1.1
		c1.5,0,2.8,0.3,4,0.9C308.3,20.6,309.3,21.4,310.1,22.5z"/>
	<path class="st4" d="M313.1,13.6h3.8v20.9h-3.8V13.6z"/>
</g>
</svg>
